<mxfile host="Electron" modified="2024-07-14T21:08:40.450Z" agent="Mozilla/5.0 (X11; Linux x86_64) AppleWebKit/537.36 (KHTML, like Gecko) draw.io/24.6.4 Chrome/124.0.6367.207 Electron/30.0.6 Safari/537.36" etag="FOa0XosA2SXu49Rq9CWr" version="24.6.4" type="device">
  <diagram name="Page-1" id="5N1QG-RuHGxLHV1p5bVp">
    <mxGraphModel dx="2049" dy="1421" grid="1" gridSize="10" guides="1" tooltips="1" connect="1" arrows="1" fold="1" page="1" pageScale="1" pageWidth="850" pageHeight="1100" math="0" shadow="0">
      <root>
        <mxCell id="0" />
        <mxCell id="1" parent="0" />
        <mxCell id="ytIPeGB8zy7AAXnz2NpN-29" value="&lt;font color=&quot;#ffffff&quot;&gt;#2E3440&lt;/font&gt;" style="rounded=0;whiteSpace=wrap;html=1;strokeWidth=2;fillColor=#2e3440;strokeColor=none;fontColor=#333333;" parent="1" vertex="1">
          <mxGeometry width="80" height="40" as="geometry" />
        </mxCell>
        <mxCell id="ytIPeGB8zy7AAXnz2NpN-30" value="&lt;font color=&quot;#ffffff&quot;&gt;#3b4252&lt;/font&gt;" style="rounded=0;whiteSpace=wrap;html=1;strokeWidth=2;fillColor=#3b4252;strokeColor=none;fontColor=#333333;" parent="1" vertex="1">
          <mxGeometry x="80" width="80" height="40" as="geometry" />
        </mxCell>
        <mxCell id="ytIPeGB8zy7AAXnz2NpN-31" value="&lt;font color=&quot;#ffffff&quot;&gt;#434c5e&lt;/font&gt;" style="rounded=0;whiteSpace=wrap;html=1;strokeWidth=2;fillColor=#434c5e;strokeColor=none;fontColor=#333333;" parent="1" vertex="1">
          <mxGeometry x="160" width="80" height="40" as="geometry" />
        </mxCell>
        <mxCell id="ytIPeGB8zy7AAXnz2NpN-32" value="&lt;font color=&quot;#ffffff&quot;&gt;#4c566a&lt;/font&gt;" style="rounded=0;whiteSpace=wrap;html=1;strokeWidth=2;fillColor=#4c566a;strokeColor=none;fontColor=#333333;" parent="1" vertex="1">
          <mxGeometry x="240" width="80" height="40" as="geometry" />
        </mxCell>
        <mxCell id="ytIPeGB8zy7AAXnz2NpN-34" value="&lt;font color=&quot;#2e3440&quot;&gt;#d8dee9&lt;/font&gt;" style="rounded=0;whiteSpace=wrap;html=1;strokeWidth=2;fillColor=#d8dee9;strokeColor=none;fontColor=#333333;" parent="1" vertex="1">
          <mxGeometry y="40" width="80" height="40" as="geometry" />
        </mxCell>
        <mxCell id="ytIPeGB8zy7AAXnz2NpN-35" value="&lt;font color=&quot;#2e3440&quot;&gt;#e5e9f0&lt;/font&gt;" style="rounded=0;whiteSpace=wrap;html=1;strokeWidth=2;fillColor=#e5e9f0;strokeColor=none;fontColor=#333333;" parent="1" vertex="1">
          <mxGeometry x="80" y="40" width="80" height="40" as="geometry" />
        </mxCell>
        <mxCell id="ytIPeGB8zy7AAXnz2NpN-36" value="&lt;font color=&quot;#2e3440&quot;&gt;#eceff4&lt;/font&gt;" style="rounded=0;whiteSpace=wrap;html=1;strokeWidth=2;fillColor=#eceff4;strokeColor=none;fontColor=#333333;" parent="1" vertex="1">
          <mxGeometry x="160" y="40" width="80" height="40" as="geometry" />
        </mxCell>
        <mxCell id="ytIPeGB8zy7AAXnz2NpN-37" value="&lt;font color=&quot;#2e3440&quot;&gt;#8fbcbb&lt;/font&gt;" style="rounded=0;whiteSpace=wrap;html=1;strokeWidth=2;fillColor=#8fbcbb;strokeColor=none;fontColor=#333333;" parent="1" vertex="1">
          <mxGeometry y="80" width="80" height="40" as="geometry" />
        </mxCell>
        <mxCell id="ytIPeGB8zy7AAXnz2NpN-38" value="&lt;font color=&quot;#2e3440&quot;&gt;#88c0d0&lt;/font&gt;" style="rounded=0;whiteSpace=wrap;html=1;strokeWidth=2;fillColor=#88c0d0;strokeColor=none;fontColor=#333333;" parent="1" vertex="1">
          <mxGeometry x="80" y="80" width="80" height="40" as="geometry" />
        </mxCell>
        <mxCell id="ytIPeGB8zy7AAXnz2NpN-39" value="&lt;font color=&quot;#2e3440&quot;&gt;#81a1c1&lt;/font&gt;" style="rounded=0;whiteSpace=wrap;html=1;strokeWidth=2;fillColor=#81a1c1;strokeColor=none;fontColor=#333333;" parent="1" vertex="1">
          <mxGeometry x="160" y="80" width="80" height="40" as="geometry" />
        </mxCell>
        <mxCell id="ytIPeGB8zy7AAXnz2NpN-40" value="&lt;font color=&quot;#2e3440&quot;&gt;#5e81ac&lt;/font&gt;" style="rounded=0;whiteSpace=wrap;html=1;strokeWidth=2;fillColor=#5e81ac;strokeColor=none;fontColor=#333333;" parent="1" vertex="1">
          <mxGeometry x="240" y="80" width="80" height="40" as="geometry" />
        </mxCell>
        <mxCell id="ytIPeGB8zy7AAXnz2NpN-41" value="&lt;font color=&quot;#2e3440&quot;&gt;#bf616a&lt;/font&gt;" style="rounded=0;whiteSpace=wrap;html=1;strokeWidth=2;fillColor=#bf616a;strokeColor=none;fontColor=#333333;" parent="1" vertex="1">
          <mxGeometry y="120" width="80" height="40" as="geometry" />
        </mxCell>
        <mxCell id="ytIPeGB8zy7AAXnz2NpN-42" value="&lt;font color=&quot;#2e3440&quot;&gt;#d08770&lt;/font&gt;" style="rounded=0;whiteSpace=wrap;html=1;strokeWidth=2;fillColor=#d08770;strokeColor=none;fontColor=#333333;" parent="1" vertex="1">
          <mxGeometry x="80" y="120" width="80" height="40" as="geometry" />
        </mxCell>
        <mxCell id="ytIPeGB8zy7AAXnz2NpN-43" value="&lt;font color=&quot;#2e3440&quot;&gt;#ebcb8b&lt;/font&gt;" style="rounded=0;whiteSpace=wrap;html=1;strokeWidth=2;fillColor=#ebcb8b;strokeColor=none;fontColor=#333333;" parent="1" vertex="1">
          <mxGeometry x="160" y="120" width="80" height="40" as="geometry" />
        </mxCell>
        <mxCell id="ytIPeGB8zy7AAXnz2NpN-44" value="&lt;font color=&quot;#2e3440&quot;&gt;#a3be8c&lt;/font&gt;" style="rounded=0;whiteSpace=wrap;html=1;strokeWidth=2;fillColor=#a3be8c;strokeColor=none;fontColor=#333333;" parent="1" vertex="1">
          <mxGeometry x="240" y="120" width="80" height="40" as="geometry" />
        </mxCell>
        <mxCell id="ytIPeGB8zy7AAXnz2NpN-45" value="&lt;font color=&quot;#2e3440&quot;&gt;#b48ead&lt;/font&gt;" style="rounded=0;whiteSpace=wrap;html=1;strokeWidth=2;fillColor=#b48ead;strokeColor=none;fontColor=#333333;" parent="1" vertex="1">
          <mxGeometry x="320" y="120" width="80" height="40" as="geometry" />
        </mxCell>
        <mxCell id="ytIPeGB8zy7AAXnz2NpN-62" style="edgeStyle=orthogonalEdgeStyle;rounded=0;orthogonalLoop=1;jettySize=auto;html=1;entryX=1;entryY=0.5;entryDx=0;entryDy=0;strokeWidth=2;strokeColor=#4C566A;" parent="1" source="ytIPeGB8zy7AAXnz2NpN-49" target="ytIPeGB8zy7AAXnz2NpN-53" edge="1">
          <mxGeometry relative="1" as="geometry" />
        </mxCell>
        <mxCell id="ytIPeGB8zy7AAXnz2NpN-68" style="edgeStyle=orthogonalEdgeStyle;rounded=0;orthogonalLoop=1;jettySize=auto;html=1;entryX=0.5;entryY=0;entryDx=0;entryDy=0;strokeWidth=2;strokeColor=#4C566A;" parent="1" source="ytIPeGB8zy7AAXnz2NpN-49" target="ytIPeGB8zy7AAXnz2NpN-55" edge="1">
          <mxGeometry relative="1" as="geometry" />
        </mxCell>
        <mxCell id="ytIPeGB8zy7AAXnz2NpN-49" value="&lt;font color=&quot;#2e3440&quot; face=&quot;Helvetica&quot; style=&quot;font-size: 15px;&quot;&gt;configure.ac&lt;/font&gt;" style="rounded=0;whiteSpace=wrap;html=1;strokeWidth=2;fillColor=#ECEFF4;strokeColor=#4c566a;fontColor=#333333;fillOpacity=50;" parent="1" vertex="1">
          <mxGeometry x="240" y="320" width="120" height="40" as="geometry" />
        </mxCell>
        <mxCell id="ytIPeGB8zy7AAXnz2NpN-71" style="edgeStyle=orthogonalEdgeStyle;rounded=0;orthogonalLoop=1;jettySize=auto;html=1;entryX=0.5;entryY=0;entryDx=0;entryDy=0;strokeWidth=2;strokeColor=#4C566A;" parent="1" source="ytIPeGB8zy7AAXnz2NpN-50" target="ytIPeGB8zy7AAXnz2NpN-60" edge="1">
          <mxGeometry relative="1" as="geometry" />
        </mxCell>
        <mxCell id="ytIPeGB8zy7AAXnz2NpN-50" value="&lt;font color=&quot;#2e3440&quot; face=&quot;Helvetica&quot; style=&quot;font-size: 15px;&quot;&gt;Makefile.am&lt;/font&gt;" style="rounded=0;whiteSpace=wrap;html=1;strokeWidth=2;fillColor=#ECEFF4;strokeColor=#4c566a;fontColor=#333333;fillOpacity=50;" parent="1" vertex="1">
          <mxGeometry x="400" y="320" width="120" height="40" as="geometry" />
        </mxCell>
        <mxCell id="ytIPeGB8zy7AAXnz2NpN-72" style="edgeStyle=orthogonalEdgeStyle;rounded=0;orthogonalLoop=1;jettySize=auto;html=1;entryX=0.75;entryY=0;entryDx=0;entryDy=0;strokeWidth=2;strokeColor=#4C566A;" parent="1" source="ytIPeGB8zy7AAXnz2NpN-51" target="ytIPeGB8zy7AAXnz2NpN-60" edge="1">
          <mxGeometry relative="1" as="geometry">
            <Array as="points">
              <mxPoint x="620" y="450" />
              <mxPoint x="490" y="450" />
            </Array>
          </mxGeometry>
        </mxCell>
        <mxCell id="ytIPeGB8zy7AAXnz2NpN-51" value="&lt;font color=&quot;#2e3440&quot; face=&quot;Helvetica&quot; style=&quot;font-size: 15px;&quot;&gt;src/Makefile.am&lt;/font&gt;" style="rounded=0;whiteSpace=wrap;html=1;strokeWidth=2;fillColor=#ECEFF4;strokeColor=#4c566a;fontColor=#333333;fillOpacity=50;" parent="1" vertex="1">
          <mxGeometry x="560" y="320" width="120" height="40" as="geometry" />
        </mxCell>
        <mxCell id="ytIPeGB8zy7AAXnz2NpN-52" value="&lt;font color=&quot;#2e3440&quot; face=&quot;Helvetica&quot; style=&quot;font-size: 15px;&quot;&gt;config.h.in&lt;/font&gt;" style="rounded=0;whiteSpace=wrap;html=1;strokeWidth=2;fillColor=#a3be8c;strokeColor=#A3BE8C;fontColor=#333333;fillOpacity=50;fillStyle=solid;" parent="1" vertex="1">
          <mxGeometry x="240" y="560" width="120" height="40" as="geometry" />
        </mxCell>
        <mxCell id="ytIPeGB8zy7AAXnz2NpN-63" style="edgeStyle=orthogonalEdgeStyle;rounded=0;orthogonalLoop=1;jettySize=auto;html=1;entryX=0.5;entryY=0;entryDx=0;entryDy=0;strokeWidth=2;strokeColor=#BF616A;" parent="1" source="ytIPeGB8zy7AAXnz2NpN-53" target="ytIPeGB8zy7AAXnz2NpN-56" edge="1">
          <mxGeometry relative="1" as="geometry">
            <Array as="points">
              <mxPoint x="140" y="260" />
            </Array>
          </mxGeometry>
        </mxCell>
        <mxCell id="ytIPeGB8zy7AAXnz2NpN-53" value="&lt;font color=&quot;#2e3440&quot; face=&quot;Helvetica&quot; style=&quot;font-size: 15px;&quot;&gt;aclocal&lt;/font&gt;" style="rounded=0;whiteSpace=wrap;html=1;strokeWidth=2;fillColor=#BF616A;strokeColor=#BF616A;perimeterSpacing=0;glass=0;shadow=0;fillStyle=solid;gradientColor=none;fillOpacity=50;" parent="1" vertex="1">
          <mxGeometry x="160" y="240" width="120" height="40" as="geometry" />
        </mxCell>
        <mxCell id="ytIPeGB8zy7AAXnz2NpN-75" style="edgeStyle=orthogonalEdgeStyle;rounded=0;orthogonalLoop=1;jettySize=auto;html=1;entryX=0.5;entryY=0;entryDx=0;entryDy=0;strokeWidth=2;strokeColor=#BF616A;" parent="1" source="ytIPeGB8zy7AAXnz2NpN-54" target="ytIPeGB8zy7AAXnz2NpN-57" edge="1">
          <mxGeometry relative="1" as="geometry" />
        </mxCell>
        <mxCell id="ytIPeGB8zy7AAXnz2NpN-54" value="&lt;font color=&quot;#2e3440&quot; face=&quot;Helvetica&quot; style=&quot;font-size: 15px;&quot;&gt;autoconf&lt;/font&gt;" style="rounded=0;whiteSpace=wrap;html=1;strokeWidth=2;fillColor=#BF616A;strokeColor=#BF616A;perimeterSpacing=0;glass=0;shadow=0;fillStyle=solid;gradientColor=none;fillOpacity=50;" parent="1" vertex="1">
          <mxGeometry x="80" y="480" width="120" height="40" as="geometry" />
        </mxCell>
        <mxCell id="ytIPeGB8zy7AAXnz2NpN-77" style="edgeStyle=orthogonalEdgeStyle;rounded=0;orthogonalLoop=1;jettySize=auto;html=1;entryX=0.5;entryY=0;entryDx=0;entryDy=0;strokeWidth=2;strokeColor=#BF616A;" parent="1" source="ytIPeGB8zy7AAXnz2NpN-55" target="ytIPeGB8zy7AAXnz2NpN-52" edge="1">
          <mxGeometry relative="1" as="geometry" />
        </mxCell>
        <mxCell id="ytIPeGB8zy7AAXnz2NpN-55" value="&lt;font color=&quot;#2e3440&quot; face=&quot;Helvetica&quot; style=&quot;font-size: 15px;&quot;&gt;autoheader&lt;/font&gt;" style="rounded=0;whiteSpace=wrap;html=1;strokeWidth=2;fillColor=#BF616A;strokeColor=#BF616A;perimeterSpacing=0;glass=0;shadow=0;fillStyle=solid;gradientColor=none;fillOpacity=50;" parent="1" vertex="1">
          <mxGeometry x="240" y="480" width="120" height="40" as="geometry" />
        </mxCell>
        <mxCell id="ytIPeGB8zy7AAXnz2NpN-65" style="edgeStyle=orthogonalEdgeStyle;rounded=0;orthogonalLoop=1;jettySize=auto;html=1;entryX=0.25;entryY=0;entryDx=0;entryDy=0;strokeWidth=2;strokeColor=#5E81AC;exitX=0.25;exitY=1;exitDx=0;exitDy=0;" parent="1" source="ytIPeGB8zy7AAXnz2NpN-56" target="ytIPeGB8zy7AAXnz2NpN-54" edge="1">
          <mxGeometry relative="1" as="geometry">
            <Array as="points">
              <mxPoint x="110" y="450" />
              <mxPoint x="110" y="450" />
            </Array>
          </mxGeometry>
        </mxCell>
        <mxCell id="ytIPeGB8zy7AAXnz2NpN-56" value="&lt;font color=&quot;#2e3440&quot; face=&quot;Helvetica&quot; style=&quot;font-size: 15px;&quot;&gt;aclocal.m4&lt;/font&gt;" style="rounded=0;whiteSpace=wrap;html=1;strokeWidth=2;fillColor=#5E81AC;strokeColor=#5E81AC;fontColor=#333333;fillOpacity=50;" parent="1" vertex="1">
          <mxGeometry x="80" y="320" width="120" height="40" as="geometry" />
        </mxCell>
        <mxCell id="ytIPeGB8zy7AAXnz2NpN-57" value="&lt;font color=&quot;#2e3440&quot; face=&quot;Helvetica&quot; style=&quot;font-size: 15px;&quot;&gt;configure&lt;/font&gt;" style="rounded=0;whiteSpace=wrap;html=1;strokeWidth=2;fillColor=#a3be8c;strokeColor=#A3BE8C;fontColor=#333333;fillOpacity=50;fillStyle=solid;" parent="1" vertex="1">
          <mxGeometry x="80" y="560" width="120" height="40" as="geometry" />
        </mxCell>
        <mxCell id="ytIPeGB8zy7AAXnz2NpN-58" value="&lt;font color=&quot;#2e3440&quot; face=&quot;Helvetica&quot; style=&quot;font-size: 15px;&quot;&gt;Makefile.in&lt;/font&gt;" style="rounded=0;whiteSpace=wrap;html=1;strokeWidth=2;fillColor=#a3be8c;strokeColor=#A3BE8C;fontColor=#333333;fillOpacity=50;fillStyle=solid;" parent="1" vertex="1">
          <mxGeometry x="400" y="560" width="120" height="40" as="geometry" />
        </mxCell>
        <mxCell id="ytIPeGB8zy7AAXnz2NpN-59" value="&lt;font color=&quot;#2e3440&quot; face=&quot;Helvetica&quot; style=&quot;font-size: 15px;&quot;&gt;src/Makefile.in&lt;/font&gt;" style="rounded=0;whiteSpace=wrap;html=1;strokeWidth=2;fillColor=#a3be8c;strokeColor=#A3BE8C;fontColor=#333333;fillOpacity=50;fillStyle=solid;" parent="1" vertex="1">
          <mxGeometry x="560" y="560" width="120" height="40" as="geometry" />
        </mxCell>
        <mxCell id="ytIPeGB8zy7AAXnz2NpN-73" style="edgeStyle=orthogonalEdgeStyle;rounded=0;orthogonalLoop=1;jettySize=auto;html=1;entryX=0.5;entryY=0;entryDx=0;entryDy=0;strokeWidth=2;strokeColor=#BF616A;" parent="1" source="ytIPeGB8zy7AAXnz2NpN-60" target="ytIPeGB8zy7AAXnz2NpN-58" edge="1">
          <mxGeometry relative="1" as="geometry" />
        </mxCell>
        <mxCell id="ytIPeGB8zy7AAXnz2NpN-74" style="edgeStyle=orthogonalEdgeStyle;rounded=0;orthogonalLoop=1;jettySize=auto;html=1;entryX=0.5;entryY=0;entryDx=0;entryDy=0;strokeWidth=2;strokeColor=#BF616A;exitX=0.75;exitY=1;exitDx=0;exitDy=0;" parent="1" source="ytIPeGB8zy7AAXnz2NpN-60" target="ytIPeGB8zy7AAXnz2NpN-59" edge="1">
          <mxGeometry relative="1" as="geometry">
            <Array as="points">
              <mxPoint x="490" y="540" />
              <mxPoint x="620" y="540" />
            </Array>
          </mxGeometry>
        </mxCell>
        <mxCell id="ytIPeGB8zy7AAXnz2NpN-60" value="&lt;font color=&quot;#2e3440&quot; face=&quot;Helvetica&quot; style=&quot;font-size: 15px;&quot;&gt;automake&lt;/font&gt;" style="rounded=0;whiteSpace=wrap;html=1;strokeWidth=2;fillColor=#BF616A;strokeColor=#BF616A;perimeterSpacing=0;glass=0;shadow=0;fillStyle=solid;gradientColor=none;fillOpacity=50;" parent="1" vertex="1">
          <mxGeometry x="400" y="480" width="120" height="40" as="geometry" />
        </mxCell>
        <mxCell id="ytIPeGB8zy7AAXnz2NpN-66" value="" style="endArrow=classic;html=1;rounded=0;entryX=0;entryY=0;entryDx=0;entryDy=0;strokeWidth=2;strokeColor=#5E81AC;exitX=0.5;exitY=1;exitDx=0;exitDy=0;" parent="1" source="ytIPeGB8zy7AAXnz2NpN-56" target="ytIPeGB8zy7AAXnz2NpN-55" edge="1">
          <mxGeometry width="50" height="50" relative="1" as="geometry">
            <mxPoint x="140" y="400" as="sourcePoint" />
            <mxPoint x="140" y="570" as="targetPoint" />
            <Array as="points">
              <mxPoint x="140" y="420" />
              <mxPoint x="240" y="420" />
            </Array>
          </mxGeometry>
        </mxCell>
        <mxCell id="ytIPeGB8zy7AAXnz2NpN-67" value="" style="endArrow=classic;html=1;rounded=0;entryX=0;entryY=0;entryDx=0;entryDy=0;strokeWidth=2;strokeColor=#5E81AC;exitX=0.75;exitY=1;exitDx=0;exitDy=0;" parent="1" source="ytIPeGB8zy7AAXnz2NpN-56" target="ytIPeGB8zy7AAXnz2NpN-60" edge="1">
          <mxGeometry width="50" height="50" relative="1" as="geometry">
            <mxPoint x="230" y="400" as="sourcePoint" />
            <mxPoint x="140" y="570" as="targetPoint" />
            <Array as="points">
              <mxPoint x="170" y="390" />
              <mxPoint x="400" y="390" />
            </Array>
          </mxGeometry>
        </mxCell>
        <mxCell id="ytIPeGB8zy7AAXnz2NpN-69" value="" style="endArrow=classic;html=1;rounded=0;entryX=0.75;entryY=0;entryDx=0;entryDy=0;strokeWidth=2;strokeColor=#4C566A;exitX=0.25;exitY=1;exitDx=0;exitDy=0;" parent="1" source="ytIPeGB8zy7AAXnz2NpN-49" target="ytIPeGB8zy7AAXnz2NpN-54" edge="1">
          <mxGeometry width="50" height="50" relative="1" as="geometry">
            <mxPoint x="300" y="440" as="sourcePoint" />
            <mxPoint x="140" y="570" as="targetPoint" />
            <Array as="points">
              <mxPoint x="270" y="450" />
              <mxPoint x="170" y="450" />
            </Array>
          </mxGeometry>
        </mxCell>
        <mxCell id="ytIPeGB8zy7AAXnz2NpN-70" value="" style="endArrow=classic;html=1;rounded=0;entryX=0.25;entryY=0;entryDx=0;entryDy=0;strokeWidth=2;strokeColor=#4C566A;exitX=0.75;exitY=1;exitDx=0;exitDy=0;" parent="1" source="ytIPeGB8zy7AAXnz2NpN-49" target="ytIPeGB8zy7AAXnz2NpN-60" edge="1">
          <mxGeometry width="50" height="50" relative="1" as="geometry">
            <mxPoint x="300" y="440" as="sourcePoint" />
            <mxPoint x="550" y="460" as="targetPoint" />
            <Array as="points">
              <mxPoint x="330" y="450" />
              <mxPoint x="430" y="450" />
            </Array>
          </mxGeometry>
        </mxCell>
        <mxCell id="ytIPeGB8zy7AAXnz2NpN-81" style="edgeStyle=orthogonalEdgeStyle;rounded=0;orthogonalLoop=1;jettySize=auto;html=1;entryX=0;entryY=0.5;entryDx=0;entryDy=0;strokeWidth=2;strokeColor=#BF616A;" parent="1" source="ytIPeGB8zy7AAXnz2NpN-84" target="ytIPeGB8zy7AAXnz2NpN-89" edge="1">
          <mxGeometry relative="1" as="geometry" />
        </mxCell>
        <mxCell id="ytIPeGB8zy7AAXnz2NpN-83" style="edgeStyle=orthogonalEdgeStyle;rounded=0;orthogonalLoop=1;jettySize=auto;html=1;exitX=0.75;exitY=0;exitDx=0;exitDy=0;entryX=0.5;entryY=0;entryDx=0;entryDy=0;strokeWidth=2;strokeColor=#BF616A;" parent="1" source="ytIPeGB8zy7AAXnz2NpN-84" target="ytIPeGB8zy7AAXnz2NpN-96" edge="1">
          <mxGeometry relative="1" as="geometry">
            <Array as="points">
              <mxPoint x="1170" y="680" />
              <mxPoint x="1520" y="680" />
            </Array>
          </mxGeometry>
        </mxCell>
        <mxCell id="ytIPeGB8zy7AAXnz2NpN-84" value="&lt;font color=&quot;#2e3440&quot; face=&quot;Helvetica&quot; style=&quot;font-size: 15px;&quot;&gt;configure&lt;/font&gt;" style="rounded=0;whiteSpace=wrap;html=1;strokeWidth=2;fillColor=#BF616A;strokeColor=#BF616A;perimeterSpacing=0;glass=0;shadow=0;fillStyle=solid;gradientColor=none;fillOpacity=50;" parent="1" vertex="1">
          <mxGeometry x="1080" y="720" width="120" height="40" as="geometry" />
        </mxCell>
        <mxCell id="ytIPeGB8zy7AAXnz2NpN-85" style="edgeStyle=orthogonalEdgeStyle;rounded=0;orthogonalLoop=1;jettySize=auto;html=1;exitX=1;exitY=0.5;exitDx=0;exitDy=0;entryX=0;entryY=0.5;entryDx=0;entryDy=0;strokeWidth=2;strokeColor=#BF616A;" parent="1" source="ytIPeGB8zy7AAXnz2NpN-89" target="ytIPeGB8zy7AAXnz2NpN-96" edge="1">
          <mxGeometry relative="1" as="geometry" />
        </mxCell>
        <mxCell id="ytIPeGB8zy7AAXnz2NpN-86" style="edgeStyle=orthogonalEdgeStyle;rounded=0;orthogonalLoop=1;jettySize=auto;html=1;entryX=0.5;entryY=0;entryDx=0;entryDy=0;strokeWidth=2;strokeColor=#BF616A;" parent="1" source="ytIPeGB8zy7AAXnz2NpN-89" edge="1">
          <mxGeometry relative="1" as="geometry">
            <mxPoint x="1360" y="840" as="targetPoint" />
          </mxGeometry>
        </mxCell>
        <mxCell id="ytIPeGB8zy7AAXnz2NpN-87" style="edgeStyle=orthogonalEdgeStyle;rounded=0;orthogonalLoop=1;jettySize=auto;html=1;exitX=0.25;exitY=1;exitDx=0;exitDy=0;entryX=0.5;entryY=0;entryDx=0;entryDy=0;strokeWidth=2;strokeColor=#BF616A;" parent="1" source="ytIPeGB8zy7AAXnz2NpN-89" edge="1">
          <mxGeometry relative="1" as="geometry">
            <Array as="points">
              <mxPoint x="1330" y="800" />
              <mxPoint x="1200" y="800" />
            </Array>
            <mxPoint x="1200" y="840" as="targetPoint" />
          </mxGeometry>
        </mxCell>
        <mxCell id="ytIPeGB8zy7AAXnz2NpN-88" style="edgeStyle=orthogonalEdgeStyle;rounded=0;orthogonalLoop=1;jettySize=auto;html=1;exitX=0.75;exitY=1;exitDx=0;exitDy=0;entryX=0.5;entryY=0;entryDx=0;entryDy=0;strokeWidth=2;strokeColor=#BF616A;" parent="1" source="ytIPeGB8zy7AAXnz2NpN-89" edge="1">
          <mxGeometry relative="1" as="geometry">
            <Array as="points">
              <mxPoint x="1390" y="800" />
              <mxPoint x="1520" y="800" />
            </Array>
            <mxPoint x="1520" y="840" as="targetPoint" />
          </mxGeometry>
        </mxCell>
        <mxCell id="ytIPeGB8zy7AAXnz2NpN-89" value="&lt;font color=&quot;#2e3440&quot; face=&quot;Helvetica&quot; style=&quot;font-size: 15px;&quot;&gt;config.status&lt;/font&gt;" style="rounded=0;whiteSpace=wrap;html=1;strokeWidth=2;fillColor=#BF616A;strokeColor=#BF616A;fillOpacity=50;" parent="1" vertex="1">
          <mxGeometry x="1300" y="720" width="120" height="40" as="geometry" />
        </mxCell>
        <mxCell id="ytIPeGB8zy7AAXnz2NpN-90" style="edgeStyle=orthogonalEdgeStyle;rounded=0;orthogonalLoop=1;jettySize=auto;html=1;entryX=0.25;entryY=0;entryDx=0;entryDy=0;strokeWidth=2;strokeColor=#4C566A;" parent="1" target="ytIPeGB8zy7AAXnz2NpN-89" edge="1">
          <mxGeometry relative="1" as="geometry">
            <Array as="points">
              <mxPoint x="1200" y="640" />
              <mxPoint x="1330" y="640" />
            </Array>
            <mxPoint x="1200" y="600" as="sourcePoint" />
          </mxGeometry>
        </mxCell>
        <mxCell id="ytIPeGB8zy7AAXnz2NpN-92" style="edgeStyle=orthogonalEdgeStyle;rounded=0;orthogonalLoop=1;jettySize=auto;html=1;strokeWidth=2;strokeColor=#4C566A;" parent="1" edge="1">
          <mxGeometry relative="1" as="geometry">
            <mxPoint x="1360" y="720" as="targetPoint" />
            <mxPoint x="1360" y="600" as="sourcePoint" />
          </mxGeometry>
        </mxCell>
        <mxCell id="ytIPeGB8zy7AAXnz2NpN-94" style="edgeStyle=orthogonalEdgeStyle;rounded=0;orthogonalLoop=1;jettySize=auto;html=1;entryX=0.75;entryY=0;entryDx=0;entryDy=0;strokeWidth=2;strokeColor=#4C566A;" parent="1" target="ytIPeGB8zy7AAXnz2NpN-89" edge="1">
          <mxGeometry relative="1" as="geometry">
            <Array as="points">
              <mxPoint x="1520" y="640" />
              <mxPoint x="1390" y="640" />
            </Array>
            <mxPoint x="1520" y="600" as="sourcePoint" />
          </mxGeometry>
        </mxCell>
        <mxCell id="ytIPeGB8zy7AAXnz2NpN-96" value="&lt;font color=&quot;#2e3440&quot; face=&quot;Helvetica&quot; style=&quot;font-size: 15px;&quot;&gt;config.log&lt;/font&gt;" style="rounded=0;whiteSpace=wrap;html=1;strokeWidth=2;fillColor=#5E81AC;strokeColor=#5E81AC;fontColor=#333333;fillOpacity=50;" parent="1" vertex="1">
          <mxGeometry x="1460" y="720" width="120" height="40" as="geometry" />
        </mxCell>
        <mxCell id="ytIPeGB8zy7AAXnz2NpN-100" style="edgeStyle=orthogonalEdgeStyle;rounded=0;orthogonalLoop=1;jettySize=auto;html=1;exitX=0.5;exitY=1;exitDx=0;exitDy=0;entryX=0.25;entryY=1;entryDx=0;entryDy=0;strokeWidth=2;strokeColor=#5E81AC;" parent="1" source="ytIPeGB8zy7AAXnz2NpN-101" target="ytIPeGB8zy7AAXnz2NpN-84" edge="1">
          <mxGeometry relative="1" as="geometry">
            <Array as="points">
              <mxPoint x="1040" y="800" />
              <mxPoint x="1170" y="800" />
            </Array>
          </mxGeometry>
        </mxCell>
        <mxCell id="ytIPeGB8zy7AAXnz2NpN-101" value="&lt;font color=&quot;#2e3440&quot; face=&quot;Helvetica&quot; style=&quot;font-size: 15px;&quot;&gt;config.cache&lt;/font&gt;" style="rounded=0;whiteSpace=wrap;html=1;strokeWidth=2;fillColor=#5E81AC;strokeColor=#5E81AC;fontColor=#333333;fillOpacity=50;" parent="1" vertex="1">
          <mxGeometry x="920" y="720" width="120" height="40" as="geometry" />
        </mxCell>
        <mxCell id="ytIPeGB8zy7AAXnz2NpN-102" style="edgeStyle=orthogonalEdgeStyle;rounded=0;orthogonalLoop=1;jettySize=auto;html=1;entryX=1;entryY=0.5;entryDx=0;entryDy=0;strokeWidth=2;strokeColor=#4C566A;" parent="1" source="ytIPeGB8zy7AAXnz2NpN-104" target="ytIPeGB8zy7AAXnz2NpN-111" edge="1">
          <mxGeometry relative="1" as="geometry" />
        </mxCell>
        <mxCell id="ytIPeGB8zy7AAXnz2NpN-103" style="edgeStyle=orthogonalEdgeStyle;rounded=0;orthogonalLoop=1;jettySize=auto;html=1;entryX=0.5;entryY=0;entryDx=0;entryDy=0;strokeWidth=2;strokeColor=#4C566A;" parent="1" source="ytIPeGB8zy7AAXnz2NpN-104" target="ytIPeGB8zy7AAXnz2NpN-115" edge="1">
          <mxGeometry relative="1" as="geometry" />
        </mxCell>
        <mxCell id="ytIPeGB8zy7AAXnz2NpN-104" value="&lt;font color=&quot;#2e3440&quot; face=&quot;Helvetica&quot; style=&quot;font-size: 15px;&quot;&gt;configure.ac&lt;/font&gt;" style="rounded=0;whiteSpace=wrap;html=1;strokeWidth=2;fillColor=#ECEFF4;strokeColor=#4c566a;fontColor=#333333;fillOpacity=50;" parent="1" vertex="1">
          <mxGeometry x="1140" y="320" width="120" height="40" as="geometry" />
        </mxCell>
        <mxCell id="ytIPeGB8zy7AAXnz2NpN-105" style="edgeStyle=orthogonalEdgeStyle;rounded=0;orthogonalLoop=1;jettySize=auto;html=1;entryX=0.5;entryY=0;entryDx=0;entryDy=0;strokeWidth=2;strokeColor=#4C566A;" parent="1" source="ytIPeGB8zy7AAXnz2NpN-106" target="ytIPeGB8zy7AAXnz2NpN-123" edge="1">
          <mxGeometry relative="1" as="geometry" />
        </mxCell>
        <mxCell id="ytIPeGB8zy7AAXnz2NpN-106" value="&lt;font color=&quot;#2e3440&quot; face=&quot;Helvetica&quot; style=&quot;font-size: 15px;&quot;&gt;Makefile.am&lt;/font&gt;" style="rounded=0;whiteSpace=wrap;html=1;strokeWidth=2;fillColor=#ECEFF4;strokeColor=#4c566a;fontColor=#333333;fillOpacity=50;" parent="1" vertex="1">
          <mxGeometry x="1300" y="320" width="120" height="40" as="geometry" />
        </mxCell>
        <mxCell id="ytIPeGB8zy7AAXnz2NpN-107" style="edgeStyle=orthogonalEdgeStyle;rounded=0;orthogonalLoop=1;jettySize=auto;html=1;entryX=0.75;entryY=0;entryDx=0;entryDy=0;strokeWidth=2;strokeColor=#4C566A;" parent="1" source="ytIPeGB8zy7AAXnz2NpN-108" target="ytIPeGB8zy7AAXnz2NpN-123" edge="1">
          <mxGeometry relative="1" as="geometry">
            <Array as="points">
              <mxPoint x="1520" y="450" />
              <mxPoint x="1390" y="450" />
            </Array>
          </mxGeometry>
        </mxCell>
        <mxCell id="ytIPeGB8zy7AAXnz2NpN-108" value="&lt;font color=&quot;#2e3440&quot; face=&quot;Helvetica&quot; style=&quot;font-size: 15px;&quot;&gt;src/Makefile.am&lt;/font&gt;" style="rounded=0;whiteSpace=wrap;html=1;strokeWidth=2;fillColor=#ECEFF4;strokeColor=#4c566a;fontColor=#333333;fillOpacity=50;" parent="1" vertex="1">
          <mxGeometry x="1460" y="320" width="120" height="40" as="geometry" />
        </mxCell>
        <mxCell id="ytIPeGB8zy7AAXnz2NpN-110" style="edgeStyle=orthogonalEdgeStyle;rounded=0;orthogonalLoop=1;jettySize=auto;html=1;entryX=0.5;entryY=0;entryDx=0;entryDy=0;strokeWidth=2;strokeColor=#BF616A;" parent="1" source="ytIPeGB8zy7AAXnz2NpN-111" target="ytIPeGB8zy7AAXnz2NpN-117" edge="1">
          <mxGeometry relative="1" as="geometry">
            <Array as="points">
              <mxPoint x="1040" y="260" />
            </Array>
          </mxGeometry>
        </mxCell>
        <mxCell id="ytIPeGB8zy7AAXnz2NpN-111" value="&lt;font color=&quot;#2e3440&quot; face=&quot;Helvetica&quot; style=&quot;font-size: 15px;&quot;&gt;aclocal&lt;/font&gt;" style="rounded=0;whiteSpace=wrap;html=1;strokeWidth=2;fillColor=#BF616A;strokeColor=#BF616A;perimeterSpacing=0;glass=0;shadow=0;fillStyle=solid;gradientColor=none;fillOpacity=50;" parent="1" vertex="1">
          <mxGeometry x="1060" y="240" width="120" height="40" as="geometry" />
        </mxCell>
        <mxCell id="ytIPeGB8zy7AAXnz2NpN-113" value="&lt;font color=&quot;#2e3440&quot; face=&quot;Helvetica&quot; style=&quot;font-size: 15px;&quot;&gt;autoconf&lt;/font&gt;" style="rounded=0;whiteSpace=wrap;html=1;strokeWidth=2;fillColor=#BF616A;strokeColor=#BF616A;perimeterSpacing=0;glass=0;shadow=0;fillStyle=solid;gradientColor=none;fillOpacity=50;" parent="1" vertex="1">
          <mxGeometry x="980" y="480" width="120" height="40" as="geometry" />
        </mxCell>
        <mxCell id="ytIPeGB8zy7AAXnz2NpN-114" style="edgeStyle=orthogonalEdgeStyle;rounded=0;orthogonalLoop=1;jettySize=auto;html=1;entryX=0.5;entryY=0;entryDx=0;entryDy=0;strokeWidth=2;strokeColor=#BF616A;" parent="1" source="ytIPeGB8zy7AAXnz2NpN-115" edge="1">
          <mxGeometry relative="1" as="geometry">
            <mxPoint x="1200" y="560" as="targetPoint" />
          </mxGeometry>
        </mxCell>
        <mxCell id="ytIPeGB8zy7AAXnz2NpN-115" value="&lt;font color=&quot;#2e3440&quot; face=&quot;Helvetica&quot; style=&quot;font-size: 15px;&quot;&gt;autoheader&lt;/font&gt;" style="rounded=0;whiteSpace=wrap;html=1;strokeWidth=2;fillColor=#BF616A;strokeColor=#BF616A;perimeterSpacing=0;glass=0;shadow=0;fillStyle=solid;gradientColor=none;fillOpacity=50;" parent="1" vertex="1">
          <mxGeometry x="1140" y="480" width="120" height="40" as="geometry" />
        </mxCell>
        <mxCell id="ytIPeGB8zy7AAXnz2NpN-116" style="edgeStyle=orthogonalEdgeStyle;rounded=0;orthogonalLoop=1;jettySize=auto;html=1;entryX=0.25;entryY=0;entryDx=0;entryDy=0;strokeWidth=2;strokeColor=#5E81AC;exitX=0.25;exitY=1;exitDx=0;exitDy=0;" parent="1" source="ytIPeGB8zy7AAXnz2NpN-117" target="ytIPeGB8zy7AAXnz2NpN-113" edge="1">
          <mxGeometry relative="1" as="geometry">
            <Array as="points">
              <mxPoint x="1010" y="450" />
              <mxPoint x="1010" y="450" />
            </Array>
          </mxGeometry>
        </mxCell>
        <mxCell id="ytIPeGB8zy7AAXnz2NpN-117" value="&lt;font color=&quot;#2e3440&quot; face=&quot;Helvetica&quot; style=&quot;font-size: 15px;&quot;&gt;aclocal.m4&lt;/font&gt;" style="rounded=0;whiteSpace=wrap;html=1;strokeWidth=2;fillColor=#5E81AC;strokeColor=#5E81AC;fontColor=#333333;fillOpacity=50;" parent="1" vertex="1">
          <mxGeometry x="980" y="320" width="120" height="40" as="geometry" />
        </mxCell>
        <mxCell id="ytIPeGB8zy7AAXnz2NpN-121" style="edgeStyle=orthogonalEdgeStyle;rounded=0;orthogonalLoop=1;jettySize=auto;html=1;entryX=0.5;entryY=0;entryDx=0;entryDy=0;strokeWidth=2;strokeColor=#BF616A;" parent="1" source="ytIPeGB8zy7AAXnz2NpN-123" edge="1">
          <mxGeometry relative="1" as="geometry">
            <mxPoint x="1360" y="560" as="targetPoint" />
          </mxGeometry>
        </mxCell>
        <mxCell id="ytIPeGB8zy7AAXnz2NpN-122" style="edgeStyle=orthogonalEdgeStyle;rounded=0;orthogonalLoop=1;jettySize=auto;html=1;entryX=0.5;entryY=0;entryDx=0;entryDy=0;strokeWidth=2;strokeColor=#BF616A;exitX=0.75;exitY=1;exitDx=0;exitDy=0;" parent="1" source="ytIPeGB8zy7AAXnz2NpN-123" edge="1">
          <mxGeometry relative="1" as="geometry">
            <Array as="points">
              <mxPoint x="1390" y="540" />
              <mxPoint x="1520" y="540" />
            </Array>
            <mxPoint x="1520" y="560" as="targetPoint" />
          </mxGeometry>
        </mxCell>
        <mxCell id="ytIPeGB8zy7AAXnz2NpN-123" value="&lt;font color=&quot;#2e3440&quot; face=&quot;Helvetica&quot; style=&quot;font-size: 15px;&quot;&gt;automake&lt;/font&gt;" style="rounded=0;whiteSpace=wrap;html=1;strokeWidth=2;fillColor=#BF616A;strokeColor=#BF616A;perimeterSpacing=0;glass=0;shadow=0;fillStyle=solid;gradientColor=none;fillOpacity=50;" parent="1" vertex="1">
          <mxGeometry x="1300" y="480" width="120" height="40" as="geometry" />
        </mxCell>
        <mxCell id="ytIPeGB8zy7AAXnz2NpN-124" value="" style="endArrow=classic;html=1;rounded=0;entryX=0;entryY=0;entryDx=0;entryDy=0;strokeWidth=2;strokeColor=#5E81AC;exitX=0.5;exitY=1;exitDx=0;exitDy=0;" parent="1" source="ytIPeGB8zy7AAXnz2NpN-117" target="ytIPeGB8zy7AAXnz2NpN-115" edge="1">
          <mxGeometry width="50" height="50" relative="1" as="geometry">
            <mxPoint x="1040" y="400" as="sourcePoint" />
            <mxPoint x="1040" y="570" as="targetPoint" />
            <Array as="points">
              <mxPoint x="1040" y="420" />
              <mxPoint x="1140" y="420" />
            </Array>
          </mxGeometry>
        </mxCell>
        <mxCell id="ytIPeGB8zy7AAXnz2NpN-125" value="" style="endArrow=classic;html=1;rounded=0;entryX=0;entryY=0;entryDx=0;entryDy=0;strokeWidth=2;strokeColor=#5E81AC;exitX=0.75;exitY=1;exitDx=0;exitDy=0;" parent="1" source="ytIPeGB8zy7AAXnz2NpN-117" target="ytIPeGB8zy7AAXnz2NpN-123" edge="1">
          <mxGeometry width="50" height="50" relative="1" as="geometry">
            <mxPoint x="1130" y="400" as="sourcePoint" />
            <mxPoint x="1040" y="570" as="targetPoint" />
            <Array as="points">
              <mxPoint x="1070" y="390" />
              <mxPoint x="1300" y="390" />
            </Array>
          </mxGeometry>
        </mxCell>
        <mxCell id="ytIPeGB8zy7AAXnz2NpN-126" value="" style="endArrow=classic;html=1;rounded=0;entryX=0.75;entryY=0;entryDx=0;entryDy=0;strokeWidth=2;strokeColor=#4C566A;exitX=0.25;exitY=1;exitDx=0;exitDy=0;" parent="1" source="ytIPeGB8zy7AAXnz2NpN-104" target="ytIPeGB8zy7AAXnz2NpN-113" edge="1">
          <mxGeometry width="50" height="50" relative="1" as="geometry">
            <mxPoint x="1200" y="440" as="sourcePoint" />
            <mxPoint x="1040" y="570" as="targetPoint" />
            <Array as="points">
              <mxPoint x="1170" y="450" />
              <mxPoint x="1070" y="450" />
            </Array>
          </mxGeometry>
        </mxCell>
        <mxCell id="ytIPeGB8zy7AAXnz2NpN-127" value="" style="endArrow=classic;html=1;rounded=0;entryX=0.25;entryY=0;entryDx=0;entryDy=0;strokeWidth=2;strokeColor=#4C566A;exitX=0.75;exitY=1;exitDx=0;exitDy=0;" parent="1" source="ytIPeGB8zy7AAXnz2NpN-104" target="ytIPeGB8zy7AAXnz2NpN-123" edge="1">
          <mxGeometry width="50" height="50" relative="1" as="geometry">
            <mxPoint x="1200" y="440" as="sourcePoint" />
            <mxPoint x="1450" y="460" as="targetPoint" />
            <Array as="points">
              <mxPoint x="1230" y="450" />
              <mxPoint x="1330" y="450" />
            </Array>
          </mxGeometry>
        </mxCell>
        <mxCell id="ytIPeGB8zy7AAXnz2NpN-128" value="&lt;font color=&quot;#2e3440&quot; face=&quot;Helvetica&quot; style=&quot;font-size: 15px;&quot;&gt;config.h.in&lt;/font&gt;" style="rounded=0;whiteSpace=wrap;html=1;strokeWidth=2;fillColor=#ECEFF4;strokeColor=#4c566a;fontColor=#333333;fillOpacity=50;" parent="1" vertex="1">
          <mxGeometry x="1140" y="560" width="120" height="40" as="geometry" />
        </mxCell>
        <mxCell id="ytIPeGB8zy7AAXnz2NpN-129" value="&lt;font color=&quot;#2e3440&quot; face=&quot;Helvetica&quot; style=&quot;font-size: 15px;&quot;&gt;src/Makefile.in&lt;/font&gt;" style="rounded=0;whiteSpace=wrap;html=1;strokeWidth=2;fillColor=#ECEFF4;strokeColor=#4c566a;fontColor=#333333;fillOpacity=50;" parent="1" vertex="1">
          <mxGeometry x="1460" y="560" width="120" height="40" as="geometry" />
        </mxCell>
        <mxCell id="ytIPeGB8zy7AAXnz2NpN-130" value="&lt;font color=&quot;#2e3440&quot; face=&quot;Helvetica&quot; style=&quot;font-size: 15px;&quot;&gt;Makefile.in&lt;/font&gt;" style="rounded=0;whiteSpace=wrap;html=1;strokeWidth=2;fillColor=#ECEFF4;strokeColor=#4c566a;fontColor=#333333;fillOpacity=50;" parent="1" vertex="1">
          <mxGeometry x="1300" y="560" width="120" height="40" as="geometry" />
        </mxCell>
        <mxCell id="hnxFMZsX1aQDn-uRQMKV-82" style="edgeStyle=orthogonalEdgeStyle;rounded=0;orthogonalLoop=1;jettySize=auto;html=1;entryX=0.25;entryY=0;entryDx=0;entryDy=0;strokeWidth=2;strokeColor=#4C566A;" edge="1" parent="1" source="ytIPeGB8zy7AAXnz2NpN-131" target="hnxFMZsX1aQDn-uRQMKV-80">
          <mxGeometry relative="1" as="geometry">
            <Array as="points">
              <mxPoint x="1200" y="900" />
              <mxPoint x="1330" y="900" />
            </Array>
          </mxGeometry>
        </mxCell>
        <mxCell id="ytIPeGB8zy7AAXnz2NpN-131" value="&lt;font color=&quot;#2e3440&quot; face=&quot;Helvetica&quot; style=&quot;font-size: 15px;&quot;&gt;config.h&lt;/font&gt;" style="rounded=0;whiteSpace=wrap;html=1;strokeWidth=2;fillColor=#ECEFF4;strokeColor=#4C566A;fontColor=#333333;fillOpacity=50;" parent="1" vertex="1">
          <mxGeometry x="1140" y="840" width="120" height="40" as="geometry" />
        </mxCell>
        <mxCell id="hnxFMZsX1aQDn-uRQMKV-83" style="edgeStyle=orthogonalEdgeStyle;rounded=0;orthogonalLoop=1;jettySize=auto;html=1;entryX=0.75;entryY=0;entryDx=0;entryDy=0;strokeWidth=2;strokeColor=#4C566A;" edge="1" parent="1" source="ytIPeGB8zy7AAXnz2NpN-132" target="hnxFMZsX1aQDn-uRQMKV-80">
          <mxGeometry relative="1" as="geometry">
            <Array as="points">
              <mxPoint x="1520" y="900" />
              <mxPoint x="1390" y="900" />
            </Array>
          </mxGeometry>
        </mxCell>
        <mxCell id="ytIPeGB8zy7AAXnz2NpN-132" value="&lt;font color=&quot;#2e3440&quot; face=&quot;Helvetica&quot; style=&quot;font-size: 15px;&quot;&gt;src/Makefile&lt;/font&gt;" style="rounded=0;whiteSpace=wrap;html=1;strokeWidth=2;fillColor=#ECEFF4;strokeColor=#4C566A;fontColor=#333333;fillOpacity=50;" parent="1" vertex="1">
          <mxGeometry x="1460" y="840" width="120" height="40" as="geometry" />
        </mxCell>
        <mxCell id="hnxFMZsX1aQDn-uRQMKV-81" style="edgeStyle=orthogonalEdgeStyle;rounded=0;orthogonalLoop=1;jettySize=auto;html=1;entryX=0.5;entryY=0;entryDx=0;entryDy=0;strokeWidth=2;strokeColor=#4C566A;" edge="1" parent="1" source="ytIPeGB8zy7AAXnz2NpN-133" target="hnxFMZsX1aQDn-uRQMKV-80">
          <mxGeometry relative="1" as="geometry" />
        </mxCell>
        <mxCell id="ytIPeGB8zy7AAXnz2NpN-133" value="&lt;font color=&quot;#2e3440&quot; face=&quot;Helvetica&quot; style=&quot;font-size: 15px;&quot;&gt;Makefile&lt;/font&gt;" style="rounded=0;whiteSpace=wrap;html=1;strokeWidth=2;fillColor=#ECEFF4;strokeColor=#4C566A;fontColor=#333333;fillOpacity=50;" parent="1" vertex="1">
          <mxGeometry x="1300" y="840" width="120" height="40" as="geometry" />
        </mxCell>
        <mxCell id="ytIPeGB8zy7AAXnz2NpN-134" style="edgeStyle=orthogonalEdgeStyle;rounded=0;orthogonalLoop=1;jettySize=auto;html=1;entryX=0;entryY=0.5;entryDx=0;entryDy=0;strokeWidth=2;strokeColor=#BF616A;" parent="1" source="ytIPeGB8zy7AAXnz2NpN-137" target="ytIPeGB8zy7AAXnz2NpN-142" edge="1">
          <mxGeometry relative="1" as="geometry" />
        </mxCell>
        <mxCell id="ytIPeGB8zy7AAXnz2NpN-135" style="edgeStyle=orthogonalEdgeStyle;rounded=0;orthogonalLoop=1;jettySize=auto;html=1;exitX=0.25;exitY=0;exitDx=0;exitDy=0;entryX=0.5;entryY=0;entryDx=0;entryDy=0;strokeWidth=2;strokeColor=#BF616A;" parent="1" source="ytIPeGB8zy7AAXnz2NpN-137" target="ytIPeGB8zy7AAXnz2NpN-148" edge="1">
          <mxGeometry relative="1" as="geometry">
            <Array as="points">
              <mxPoint x="270" y="840" />
              <mxPoint x="140" y="840" />
            </Array>
          </mxGeometry>
        </mxCell>
        <mxCell id="ytIPeGB8zy7AAXnz2NpN-136" style="edgeStyle=orthogonalEdgeStyle;rounded=0;orthogonalLoop=1;jettySize=auto;html=1;exitX=0.75;exitY=0;exitDx=0;exitDy=0;entryX=0.5;entryY=0;entryDx=0;entryDy=0;strokeWidth=2;strokeColor=#BF616A;" parent="1" source="ytIPeGB8zy7AAXnz2NpN-137" target="ytIPeGB8zy7AAXnz2NpN-146" edge="1">
          <mxGeometry relative="1" as="geometry">
            <Array as="points">
              <mxPoint x="330" y="840" />
              <mxPoint x="620" y="840" />
            </Array>
          </mxGeometry>
        </mxCell>
        <mxCell id="ytIPeGB8zy7AAXnz2NpN-137" value="&lt;font color=&quot;#2e3440&quot; face=&quot;Helvetica&quot; style=&quot;font-size: 15px;&quot;&gt;configure&lt;/font&gt;" style="rounded=0;whiteSpace=wrap;html=1;strokeWidth=2;fillColor=#BF616A;strokeColor=#BF616A;perimeterSpacing=0;glass=0;shadow=0;fillStyle=solid;gradientColor=none;fillOpacity=50;" parent="1" vertex="1">
          <mxGeometry x="240" y="880" width="120" height="40" as="geometry" />
        </mxCell>
        <mxCell id="ytIPeGB8zy7AAXnz2NpN-138" style="edgeStyle=orthogonalEdgeStyle;rounded=0;orthogonalLoop=1;jettySize=auto;html=1;exitX=1;exitY=0.5;exitDx=0;exitDy=0;entryX=0;entryY=0.5;entryDx=0;entryDy=0;strokeWidth=2;strokeColor=#BF616A;" parent="1" source="ytIPeGB8zy7AAXnz2NpN-142" target="ytIPeGB8zy7AAXnz2NpN-146" edge="1">
          <mxGeometry relative="1" as="geometry" />
        </mxCell>
        <mxCell id="ytIPeGB8zy7AAXnz2NpN-139" style="edgeStyle=orthogonalEdgeStyle;rounded=0;orthogonalLoop=1;jettySize=auto;html=1;entryX=0.5;entryY=0;entryDx=0;entryDy=0;strokeWidth=2;strokeColor=#BF616A;" parent="1" source="ytIPeGB8zy7AAXnz2NpN-142" edge="1">
          <mxGeometry relative="1" as="geometry">
            <mxPoint x="460" y="1000" as="targetPoint" />
          </mxGeometry>
        </mxCell>
        <mxCell id="ytIPeGB8zy7AAXnz2NpN-140" style="edgeStyle=orthogonalEdgeStyle;rounded=0;orthogonalLoop=1;jettySize=auto;html=1;exitX=0.25;exitY=1;exitDx=0;exitDy=0;entryX=0.5;entryY=0;entryDx=0;entryDy=0;strokeWidth=2;strokeColor=#BF616A;" parent="1" source="ytIPeGB8zy7AAXnz2NpN-142" edge="1">
          <mxGeometry relative="1" as="geometry">
            <Array as="points">
              <mxPoint x="430" y="960" />
              <mxPoint x="300" y="960" />
            </Array>
            <mxPoint x="300" y="1000" as="targetPoint" />
          </mxGeometry>
        </mxCell>
        <mxCell id="ytIPeGB8zy7AAXnz2NpN-141" style="edgeStyle=orthogonalEdgeStyle;rounded=0;orthogonalLoop=1;jettySize=auto;html=1;exitX=0.75;exitY=1;exitDx=0;exitDy=0;entryX=0.5;entryY=0;entryDx=0;entryDy=0;strokeWidth=2;strokeColor=#BF616A;" parent="1" source="ytIPeGB8zy7AAXnz2NpN-142" edge="1">
          <mxGeometry relative="1" as="geometry">
            <Array as="points">
              <mxPoint x="490" y="960" />
              <mxPoint x="620" y="960" />
            </Array>
            <mxPoint x="620" y="1000" as="targetPoint" />
          </mxGeometry>
        </mxCell>
        <mxCell id="ytIPeGB8zy7AAXnz2NpN-142" value="&lt;font color=&quot;#2e3440&quot; face=&quot;Helvetica&quot; style=&quot;font-size: 15px;&quot;&gt;config.status&lt;/font&gt;" style="rounded=0;whiteSpace=wrap;html=1;strokeWidth=2;fillColor=#BF616A;strokeColor=#BF616A;fillOpacity=50;" parent="1" vertex="1">
          <mxGeometry x="400" y="880" width="120" height="40" as="geometry" />
        </mxCell>
        <mxCell id="ytIPeGB8zy7AAXnz2NpN-143" style="edgeStyle=orthogonalEdgeStyle;rounded=0;orthogonalLoop=1;jettySize=auto;html=1;entryX=0.25;entryY=0;entryDx=0;entryDy=0;strokeWidth=2;strokeColor=#4C566A;" parent="1" target="ytIPeGB8zy7AAXnz2NpN-142" edge="1">
          <mxGeometry relative="1" as="geometry">
            <Array as="points">
              <mxPoint x="300" y="800" />
              <mxPoint x="430" y="800" />
            </Array>
            <mxPoint x="300" y="760" as="sourcePoint" />
          </mxGeometry>
        </mxCell>
        <mxCell id="ytIPeGB8zy7AAXnz2NpN-144" style="edgeStyle=orthogonalEdgeStyle;rounded=0;orthogonalLoop=1;jettySize=auto;html=1;strokeWidth=2;strokeColor=#4C566A;" parent="1" edge="1">
          <mxGeometry relative="1" as="geometry">
            <mxPoint x="460" y="880" as="targetPoint" />
            <mxPoint x="460" y="760" as="sourcePoint" />
          </mxGeometry>
        </mxCell>
        <mxCell id="ytIPeGB8zy7AAXnz2NpN-145" style="edgeStyle=orthogonalEdgeStyle;rounded=0;orthogonalLoop=1;jettySize=auto;html=1;entryX=0.75;entryY=0;entryDx=0;entryDy=0;strokeWidth=2;strokeColor=#4C566A;" parent="1" target="ytIPeGB8zy7AAXnz2NpN-142" edge="1">
          <mxGeometry relative="1" as="geometry">
            <Array as="points">
              <mxPoint x="620" y="800" />
              <mxPoint x="490" y="800" />
            </Array>
            <mxPoint x="620" y="760" as="sourcePoint" />
          </mxGeometry>
        </mxCell>
        <mxCell id="ytIPeGB8zy7AAXnz2NpN-146" value="&lt;font color=&quot;#2e3440&quot; face=&quot;Helvetica&quot; style=&quot;font-size: 15px;&quot;&gt;config.log&lt;/font&gt;" style="rounded=0;whiteSpace=wrap;html=1;strokeWidth=2;fillColor=#5E81AC;strokeColor=#5E81AC;fontColor=#333333;fillOpacity=50;" parent="1" vertex="1">
          <mxGeometry x="560" y="880" width="120" height="40" as="geometry" />
        </mxCell>
        <mxCell id="ytIPeGB8zy7AAXnz2NpN-147" style="edgeStyle=orthogonalEdgeStyle;rounded=0;orthogonalLoop=1;jettySize=auto;html=1;exitX=0.5;exitY=1;exitDx=0;exitDy=0;entryX=0.25;entryY=1;entryDx=0;entryDy=0;strokeWidth=2;strokeColor=#5E81AC;" parent="1" source="ytIPeGB8zy7AAXnz2NpN-148" target="ytIPeGB8zy7AAXnz2NpN-137" edge="1">
          <mxGeometry relative="1" as="geometry">
            <Array as="points">
              <mxPoint x="140" y="960" />
              <mxPoint x="270" y="960" />
            </Array>
          </mxGeometry>
        </mxCell>
        <mxCell id="ytIPeGB8zy7AAXnz2NpN-148" value="&lt;font color=&quot;#2e3440&quot; face=&quot;Helvetica&quot; style=&quot;font-size: 15px;&quot;&gt;config.cache&lt;/font&gt;" style="rounded=0;whiteSpace=wrap;html=1;strokeWidth=2;fillColor=#5E81AC;strokeColor=#5E81AC;fontColor=#333333;fillOpacity=50;" parent="1" vertex="1">
          <mxGeometry x="80" y="880" width="120" height="40" as="geometry" />
        </mxCell>
        <mxCell id="ytIPeGB8zy7AAXnz2NpN-149" value="&lt;font color=&quot;#2e3440&quot; face=&quot;Helvetica&quot; style=&quot;font-size: 15px;&quot;&gt;config.h.in&lt;/font&gt;" style="rounded=0;whiteSpace=wrap;html=1;strokeWidth=2;fillColor=#ECEFF4;strokeColor=#4c566a;fontColor=#333333;fillOpacity=50;" parent="1" vertex="1">
          <mxGeometry x="240" y="720" width="120" height="40" as="geometry" />
        </mxCell>
        <mxCell id="ytIPeGB8zy7AAXnz2NpN-150" value="&lt;font color=&quot;#2e3440&quot; face=&quot;Helvetica&quot; style=&quot;font-size: 15px;&quot;&gt;src/Makefile.in&lt;/font&gt;" style="rounded=0;whiteSpace=wrap;html=1;strokeWidth=2;fillColor=#ECEFF4;strokeColor=#4c566a;fontColor=#333333;fillOpacity=50;" parent="1" vertex="1">
          <mxGeometry x="560" y="720" width="120" height="40" as="geometry" />
        </mxCell>
        <mxCell id="ytIPeGB8zy7AAXnz2NpN-151" value="&lt;font color=&quot;#2e3440&quot; face=&quot;Helvetica&quot; style=&quot;font-size: 15px;&quot;&gt;Makefile.in&lt;/font&gt;" style="rounded=0;whiteSpace=wrap;html=1;strokeWidth=2;fillColor=#ECEFF4;strokeColor=#4c566a;fontColor=#333333;fillOpacity=50;" parent="1" vertex="1">
          <mxGeometry x="400" y="720" width="120" height="40" as="geometry" />
        </mxCell>
        <mxCell id="ytIPeGB8zy7AAXnz2NpN-152" value="&lt;font color=&quot;#2e3440&quot; face=&quot;Helvetica&quot; style=&quot;font-size: 15px;&quot;&gt;config.h&lt;/font&gt;" style="rounded=0;whiteSpace=wrap;html=1;strokeWidth=2;fillColor=#A3BE8C;strokeColor=#A3BE8C;fontColor=#333333;fillOpacity=50;" parent="1" vertex="1">
          <mxGeometry x="240" y="1000" width="120" height="40" as="geometry" />
        </mxCell>
        <mxCell id="ytIPeGB8zy7AAXnz2NpN-153" value="&lt;font color=&quot;#2e3440&quot; face=&quot;Helvetica&quot; style=&quot;font-size: 15px;&quot;&gt;src/Makefile&lt;/font&gt;" style="rounded=0;whiteSpace=wrap;html=1;strokeWidth=2;fillColor=#A3BE8C;strokeColor=#A3BE8C;fontColor=#333333;fillOpacity=50;" parent="1" vertex="1">
          <mxGeometry x="560" y="1000" width="120" height="40" as="geometry" />
        </mxCell>
        <mxCell id="ytIPeGB8zy7AAXnz2NpN-154" value="&lt;font color=&quot;#2e3440&quot; face=&quot;Helvetica&quot; style=&quot;font-size: 15px;&quot;&gt;Makefile&lt;/font&gt;" style="rounded=0;whiteSpace=wrap;html=1;strokeWidth=2;fillColor=#A3BE8C;strokeColor=#A3BE8C;fontColor=#333333;fillOpacity=50;" parent="1" vertex="1">
          <mxGeometry x="400" y="1000" width="120" height="40" as="geometry" />
        </mxCell>
        <mxCell id="ytIPeGB8zy7AAXnz2NpN-155" style="edgeStyle=orthogonalEdgeStyle;rounded=0;orthogonalLoop=1;jettySize=auto;html=1;exitX=0.25;exitY=0;exitDx=0;exitDy=0;entryX=0.5;entryY=0;entryDx=0;entryDy=0;strokeWidth=2;strokeColor=#BF616A;" parent="1" source="ytIPeGB8zy7AAXnz2NpN-84" target="ytIPeGB8zy7AAXnz2NpN-101" edge="1">
          <mxGeometry relative="1" as="geometry">
            <Array as="points">
              <mxPoint x="1110" y="680" />
              <mxPoint x="980" y="680" />
            </Array>
            <mxPoint x="1050" y="699.9300000000001" as="sourcePoint" />
            <mxPoint x="920" y="699.9300000000001" as="targetPoint" />
          </mxGeometry>
        </mxCell>
        <mxCell id="ytIPeGB8zy7AAXnz2NpN-156" style="edgeStyle=orthogonalEdgeStyle;rounded=0;orthogonalLoop=1;jettySize=auto;html=1;entryX=0.5;entryY=0;entryDx=0;entryDy=0;strokeWidth=2;strokeColor=#BF616A;exitX=0.5;exitY=1;exitDx=0;exitDy=0;" parent="1" source="ytIPeGB8zy7AAXnz2NpN-113" target="ytIPeGB8zy7AAXnz2NpN-84" edge="1">
          <mxGeometry relative="1" as="geometry">
            <mxPoint x="1210" y="530" as="sourcePoint" />
            <mxPoint x="1210" y="570" as="targetPoint" />
            <Array as="points">
              <mxPoint x="1040" y="640" />
              <mxPoint x="1140" y="640" />
            </Array>
          </mxGeometry>
        </mxCell>
        <mxCell id="hnxFMZsX1aQDn-uRQMKV-78" style="edgeStyle=orthogonalEdgeStyle;rounded=0;orthogonalLoop=1;jettySize=auto;html=1;entryX=0.5;entryY=0;entryDx=0;entryDy=0;strokeColor=#BF616A;strokeWidth=2;" edge="1" parent="1" source="hnxFMZsX1aQDn-uRQMKV-75" target="hnxFMZsX1aQDn-uRQMKV-76">
          <mxGeometry relative="1" as="geometry" />
        </mxCell>
        <mxCell id="hnxFMZsX1aQDn-uRQMKV-75" value="&lt;font color=&quot;#2e3440&quot; face=&quot;Helvetica&quot; style=&quot;font-size: 15px;&quot;&gt;autoscan&lt;/font&gt;" style="rounded=0;whiteSpace=wrap;html=1;strokeWidth=2;fillColor=#BF616A;strokeColor=#BF616A;perimeterSpacing=0;glass=0;shadow=0;fillStyle=solid;gradientColor=none;fillOpacity=50;" vertex="1" parent="1">
          <mxGeometry x="1170" y="80" width="120" height="40" as="geometry" />
        </mxCell>
        <mxCell id="hnxFMZsX1aQDn-uRQMKV-79" style="edgeStyle=orthogonalEdgeStyle;rounded=0;orthogonalLoop=1;jettySize=auto;html=1;entryX=0.75;entryY=0;entryDx=0;entryDy=0;strokeColor=#4C566A;strokeWidth=2;" edge="1" parent="1" source="hnxFMZsX1aQDn-uRQMKV-76" target="ytIPeGB8zy7AAXnz2NpN-104">
          <mxGeometry relative="1" as="geometry" />
        </mxCell>
        <mxCell id="hnxFMZsX1aQDn-uRQMKV-76" value="&lt;font color=&quot;#2e3440&quot; face=&quot;Helvetica&quot; style=&quot;font-size: 15px;&quot;&gt;configure.scan&lt;/font&gt;" style="rounded=0;whiteSpace=wrap;html=1;strokeWidth=2;fillColor=#ECEFF4;strokeColor=#4c566a;fontColor=#333333;fillOpacity=50;" vertex="1" parent="1">
          <mxGeometry x="1170" y="160" width="120" height="40" as="geometry" />
        </mxCell>
        <mxCell id="hnxFMZsX1aQDn-uRQMKV-85" style="edgeStyle=orthogonalEdgeStyle;rounded=0;orthogonalLoop=1;jettySize=auto;html=1;entryX=0.5;entryY=0;entryDx=0;entryDy=0;strokeWidth=2;strokeColor=#BF616A;" edge="1" parent="1" source="hnxFMZsX1aQDn-uRQMKV-80" target="hnxFMZsX1aQDn-uRQMKV-84">
          <mxGeometry relative="1" as="geometry" />
        </mxCell>
        <mxCell id="hnxFMZsX1aQDn-uRQMKV-80" value="&lt;font color=&quot;#2e3440&quot; face=&quot;Helvetica&quot; style=&quot;font-size: 15px;&quot;&gt;make&lt;/font&gt;" style="rounded=0;whiteSpace=wrap;html=1;strokeWidth=2;fillColor=#BF616A;strokeColor=#BF616A;perimeterSpacing=0;glass=0;shadow=0;fillStyle=solid;gradientColor=none;fillOpacity=50;" vertex="1" parent="1">
          <mxGeometry x="1300" y="920" width="120" height="40" as="geometry" />
        </mxCell>
        <mxCell id="hnxFMZsX1aQDn-uRQMKV-84" value="&lt;font color=&quot;#2e3440&quot;&gt;&lt;span style=&quot;font-size: 15px;&quot;&gt;executable&lt;/span&gt;&lt;/font&gt;" style="rounded=0;whiteSpace=wrap;html=1;strokeWidth=2;fillColor=#A3BE8C;strokeColor=#A3BE8C;fontColor=#333333;fillOpacity=50;" vertex="1" parent="1">
          <mxGeometry x="1300" y="1000" width="120" height="40" as="geometry" />
        </mxCell>
        <mxCell id="hnxFMZsX1aQDn-uRQMKV-115" style="edgeStyle=orthogonalEdgeStyle;rounded=0;orthogonalLoop=1;jettySize=auto;html=1;entryX=0.75;entryY=0;entryDx=0;entryDy=0;strokeWidth=2;strokeColor=#4C566A;exitX=0.5;exitY=1;exitDx=0;exitDy=0;" edge="1" parent="1" source="hnxFMZsX1aQDn-uRQMKV-88" target="hnxFMZsX1aQDn-uRQMKV-97">
          <mxGeometry relative="1" as="geometry">
            <Array as="points">
              <mxPoint x="500" y="1740" />
              <mxPoint x="370" y="1740" />
            </Array>
          </mxGeometry>
        </mxCell>
        <mxCell id="hnxFMZsX1aQDn-uRQMKV-129" style="edgeStyle=orthogonalEdgeStyle;rounded=0;orthogonalLoop=1;jettySize=auto;html=1;entryX=1;entryY=0.5;entryDx=0;entryDy=0;strokeWidth=2;strokeColor=#4C566A;" edge="1" parent="1" source="hnxFMZsX1aQDn-uRQMKV-88" target="hnxFMZsX1aQDn-uRQMKV-95">
          <mxGeometry relative="1" as="geometry" />
        </mxCell>
        <mxCell id="hnxFMZsX1aQDn-uRQMKV-88" value="&lt;font color=&quot;#2e3440&quot; face=&quot;Helvetica&quot; style=&quot;font-size: 15px;&quot;&gt;configure.ac&lt;/font&gt;" style="rounded=0;whiteSpace=wrap;html=1;strokeWidth=2;fillColor=#ECEFF4;strokeColor=#4c566a;fontColor=#333333;fillOpacity=50;" vertex="1" parent="1">
          <mxGeometry x="440" y="1600" width="120" height="40" as="geometry" />
        </mxCell>
        <mxCell id="hnxFMZsX1aQDn-uRQMKV-130" style="edgeStyle=orthogonalEdgeStyle;rounded=0;orthogonalLoop=1;jettySize=auto;html=1;entryX=0.5;entryY=0;entryDx=0;entryDy=0;strokeWidth=2;strokeColor=#BF616A;" edge="1" parent="1" source="hnxFMZsX1aQDn-uRQMKV-95" target="hnxFMZsX1aQDn-uRQMKV-101">
          <mxGeometry relative="1" as="geometry" />
        </mxCell>
        <mxCell id="hnxFMZsX1aQDn-uRQMKV-95" value="&lt;font color=&quot;#2e3440&quot; face=&quot;Helvetica&quot; style=&quot;font-size: 15px;&quot;&gt;aclocal&lt;/font&gt;" style="rounded=0;whiteSpace=wrap;html=1;strokeWidth=2;fillColor=#BF616A;strokeColor=#BF616A;perimeterSpacing=0;glass=0;shadow=0;fillStyle=solid;gradientColor=none;fillOpacity=50;" vertex="1" parent="1">
          <mxGeometry x="280" y="1600" width="120" height="40" as="geometry" />
        </mxCell>
        <mxCell id="hnxFMZsX1aQDn-uRQMKV-96" style="edgeStyle=orthogonalEdgeStyle;rounded=0;orthogonalLoop=1;jettySize=auto;html=1;entryX=0.5;entryY=0;entryDx=0;entryDy=0;strokeWidth=2;strokeColor=#BF616A;exitX=0.5;exitY=1;exitDx=0;exitDy=0;" edge="1" parent="1" source="hnxFMZsX1aQDn-uRQMKV-97" target="hnxFMZsX1aQDn-uRQMKV-102">
          <mxGeometry relative="1" as="geometry" />
        </mxCell>
        <mxCell id="hnxFMZsX1aQDn-uRQMKV-97" value="&lt;font color=&quot;#2e3440&quot; face=&quot;Helvetica&quot; style=&quot;font-size: 15px;&quot;&gt;autoconf&lt;/font&gt;" style="rounded=0;whiteSpace=wrap;html=1;strokeWidth=2;fillColor=#BF616A;strokeColor=#BF616A;perimeterSpacing=0;glass=0;shadow=0;fillStyle=solid;gradientColor=none;fillOpacity=50;" vertex="1" parent="1">
          <mxGeometry x="280" y="1760" width="120" height="40" as="geometry" />
        </mxCell>
        <mxCell id="hnxFMZsX1aQDn-uRQMKV-228" style="edgeStyle=orthogonalEdgeStyle;rounded=0;orthogonalLoop=1;jettySize=auto;html=1;entryX=0.5;entryY=0;entryDx=0;entryDy=0;strokeColor=#5E81AC;strokeWidth=2;" edge="1" parent="1" source="hnxFMZsX1aQDn-uRQMKV-101" target="hnxFMZsX1aQDn-uRQMKV-97">
          <mxGeometry relative="1" as="geometry" />
        </mxCell>
        <mxCell id="hnxFMZsX1aQDn-uRQMKV-101" value="&lt;font color=&quot;#2e3440&quot; face=&quot;Helvetica&quot; style=&quot;font-size: 15px;&quot;&gt;aclocal.m4&lt;/font&gt;" style="rounded=0;whiteSpace=wrap;html=1;strokeWidth=2;fillColor=#5E81AC;strokeColor=#5E81AC;fontColor=#333333;fillOpacity=50;" vertex="1" parent="1">
          <mxGeometry x="280" y="1680" width="120" height="40" as="geometry" />
        </mxCell>
        <mxCell id="hnxFMZsX1aQDn-uRQMKV-102" value="&lt;font color=&quot;#2e3440&quot; face=&quot;Helvetica&quot; style=&quot;font-size: 15px;&quot;&gt;configure&lt;/font&gt;" style="rounded=0;whiteSpace=wrap;html=1;strokeWidth=2;fillColor=#a3be8c;strokeColor=#A3BE8C;fontColor=#333333;fillOpacity=50;fillStyle=solid;" vertex="1" parent="1">
          <mxGeometry x="280" y="1840" width="120" height="40" as="geometry" />
        </mxCell>
        <mxCell id="hnxFMZsX1aQDn-uRQMKV-132" style="edgeStyle=orthogonalEdgeStyle;rounded=0;orthogonalLoop=1;jettySize=auto;html=1;entryX=0.5;entryY=0;entryDx=0;entryDy=0;strokeWidth=2;strokeColor=#4C566A;" edge="1" parent="1" source="hnxFMZsX1aQDn-uRQMKV-134" target="hnxFMZsX1aQDn-uRQMKV-138">
          <mxGeometry relative="1" as="geometry" />
        </mxCell>
        <mxCell id="hnxFMZsX1aQDn-uRQMKV-134" value="&lt;font color=&quot;#2e3440&quot; face=&quot;Helvetica&quot; style=&quot;font-size: 15px;&quot;&gt;configure.ac&lt;/font&gt;" style="rounded=0;whiteSpace=wrap;html=1;strokeWidth=2;fillColor=#ECEFF4;strokeColor=#4c566a;fontColor=#333333;fillOpacity=50;" vertex="1" parent="1">
          <mxGeometry x="280" y="1240" width="120" height="40" as="geometry" />
        </mxCell>
        <mxCell id="hnxFMZsX1aQDn-uRQMKV-137" style="edgeStyle=orthogonalEdgeStyle;rounded=0;orthogonalLoop=1;jettySize=auto;html=1;entryX=0.5;entryY=0;entryDx=0;entryDy=0;strokeWidth=2;strokeColor=#BF616A;" edge="1" parent="1" source="hnxFMZsX1aQDn-uRQMKV-138" target="hnxFMZsX1aQDn-uRQMKV-141">
          <mxGeometry relative="1" as="geometry" />
        </mxCell>
        <mxCell id="hnxFMZsX1aQDn-uRQMKV-138" value="&lt;font color=&quot;#2e3440&quot; face=&quot;Helvetica&quot; style=&quot;font-size: 15px;&quot;&gt;autoconf&lt;/font&gt;" style="rounded=0;whiteSpace=wrap;html=1;strokeWidth=2;fillColor=#BF616A;strokeColor=#BF616A;perimeterSpacing=0;glass=0;shadow=0;fillStyle=solid;gradientColor=none;fillOpacity=50;" vertex="1" parent="1">
          <mxGeometry x="280" y="1320" width="120" height="40" as="geometry" />
        </mxCell>
        <mxCell id="hnxFMZsX1aQDn-uRQMKV-141" value="&lt;font color=&quot;#2e3440&quot; face=&quot;Helvetica&quot; style=&quot;font-size: 15px;&quot;&gt;configure&lt;/font&gt;" style="rounded=0;whiteSpace=wrap;html=1;strokeWidth=2;fillColor=#a3be8c;strokeColor=#A3BE8C;fontColor=#333333;fillOpacity=50;fillStyle=solid;" vertex="1" parent="1">
          <mxGeometry x="280" y="1400" width="120" height="40" as="geometry" />
        </mxCell>
        <mxCell id="hnxFMZsX1aQDn-uRQMKV-168" style="edgeStyle=orthogonalEdgeStyle;rounded=0;orthogonalLoop=1;jettySize=auto;html=1;entryX=0;entryY=0.5;entryDx=0;entryDy=0;strokeWidth=2;strokeColor=#BF616A;" edge="1" parent="1" source="hnxFMZsX1aQDn-uRQMKV-170" target="hnxFMZsX1aQDn-uRQMKV-175">
          <mxGeometry relative="1" as="geometry" />
        </mxCell>
        <mxCell id="hnxFMZsX1aQDn-uRQMKV-170" value="&lt;font color=&quot;#2e3440&quot; face=&quot;Helvetica&quot; style=&quot;font-size: 15px;&quot;&gt;configure&lt;/font&gt;" style="rounded=0;whiteSpace=wrap;html=1;strokeWidth=2;fillColor=#BF616A;strokeColor=#BF616A;perimeterSpacing=0;glass=0;shadow=0;fillStyle=solid;gradientColor=none;fillOpacity=50;" vertex="1" parent="1">
          <mxGeometry x="920" y="1480" width="120" height="40" as="geometry" />
        </mxCell>
        <mxCell id="hnxFMZsX1aQDn-uRQMKV-173" style="edgeStyle=orthogonalEdgeStyle;rounded=0;orthogonalLoop=1;jettySize=auto;html=1;exitX=0.5;exitY=1;exitDx=0;exitDy=0;entryX=0.5;entryY=0;entryDx=0;entryDy=0;strokeWidth=2;strokeColor=#BF616A;" edge="1" parent="1" source="hnxFMZsX1aQDn-uRQMKV-175" target="hnxFMZsX1aQDn-uRQMKV-207">
          <mxGeometry relative="1" as="geometry">
            <Array as="points" />
            <mxPoint x="1140" y="1680" as="targetPoint" />
          </mxGeometry>
        </mxCell>
        <mxCell id="hnxFMZsX1aQDn-uRQMKV-175" value="&lt;font color=&quot;#2e3440&quot; face=&quot;Helvetica&quot; style=&quot;font-size: 15px;&quot;&gt;config.status&lt;/font&gt;" style="rounded=0;whiteSpace=wrap;html=1;strokeWidth=2;fillColor=#BF616A;strokeColor=#BF616A;fillOpacity=50;" vertex="1" parent="1">
          <mxGeometry x="1080" y="1480" width="120" height="40" as="geometry" />
        </mxCell>
        <mxCell id="hnxFMZsX1aQDn-uRQMKV-183" style="edgeStyle=orthogonalEdgeStyle;rounded=0;orthogonalLoop=1;jettySize=auto;html=1;entryX=0.5;entryY=0;entryDx=0;entryDy=0;strokeWidth=2;strokeColor=#4C566A;" edge="1" parent="1" source="hnxFMZsX1aQDn-uRQMKV-184" target="hnxFMZsX1aQDn-uRQMKV-193">
          <mxGeometry relative="1" as="geometry" />
        </mxCell>
        <mxCell id="hnxFMZsX1aQDn-uRQMKV-221" style="edgeStyle=orthogonalEdgeStyle;rounded=0;orthogonalLoop=1;jettySize=auto;html=1;entryX=1;entryY=0.5;entryDx=0;entryDy=0;strokeWidth=2;" edge="1" parent="1" source="hnxFMZsX1aQDn-uRQMKV-184" target="hnxFMZsX1aQDn-uRQMKV-190">
          <mxGeometry relative="1" as="geometry" />
        </mxCell>
        <mxCell id="hnxFMZsX1aQDn-uRQMKV-227" value="" style="edgeStyle=orthogonalEdgeStyle;rounded=0;orthogonalLoop=1;jettySize=auto;html=1;strokeColor=#4C566A;" edge="1" parent="1" source="hnxFMZsX1aQDn-uRQMKV-184" target="hnxFMZsX1aQDn-uRQMKV-190">
          <mxGeometry relative="1" as="geometry" />
        </mxCell>
        <mxCell id="hnxFMZsX1aQDn-uRQMKV-184" value="&lt;font color=&quot;#2e3440&quot; face=&quot;Helvetica&quot; style=&quot;font-size: 15px;&quot;&gt;configure.ac&lt;/font&gt;" style="rounded=0;whiteSpace=wrap;html=1;strokeWidth=2;fillColor=#ECEFF4;strokeColor=#4c566a;fontColor=#333333;fillOpacity=50;" vertex="1" parent="1">
          <mxGeometry x="1080" y="1160" width="120" height="40" as="geometry" />
        </mxCell>
        <mxCell id="hnxFMZsX1aQDn-uRQMKV-222" style="edgeStyle=orthogonalEdgeStyle;rounded=0;orthogonalLoop=1;jettySize=auto;html=1;entryX=0.5;entryY=0;entryDx=0;entryDy=0;strokeWidth=2;strokeColor=#BF616A;" edge="1" parent="1" source="hnxFMZsX1aQDn-uRQMKV-190" target="hnxFMZsX1aQDn-uRQMKV-195">
          <mxGeometry relative="1" as="geometry" />
        </mxCell>
        <mxCell id="hnxFMZsX1aQDn-uRQMKV-190" value="&lt;font color=&quot;#2e3440&quot; face=&quot;Helvetica&quot; style=&quot;font-size: 15px;&quot;&gt;aclocal&lt;/font&gt;" style="rounded=0;whiteSpace=wrap;html=1;strokeWidth=2;fillColor=#BF616A;strokeColor=#BF616A;perimeterSpacing=0;glass=0;shadow=0;fillStyle=solid;gradientColor=none;fillOpacity=50;" vertex="1" parent="1">
          <mxGeometry x="920" y="1160" width="120" height="40" as="geometry" />
        </mxCell>
        <mxCell id="hnxFMZsX1aQDn-uRQMKV-226" style="edgeStyle=orthogonalEdgeStyle;rounded=0;orthogonalLoop=1;jettySize=auto;html=1;entryX=0.5;entryY=0;entryDx=0;entryDy=0;strokeWidth=2;strokeColor=#BF616A;" edge="1" parent="1" source="hnxFMZsX1aQDn-uRQMKV-191" target="hnxFMZsX1aQDn-uRQMKV-170">
          <mxGeometry relative="1" as="geometry" />
        </mxCell>
        <mxCell id="hnxFMZsX1aQDn-uRQMKV-191" value="&lt;font color=&quot;#2e3440&quot; face=&quot;Helvetica&quot; style=&quot;font-size: 15px;&quot;&gt;autoconf&lt;/font&gt;" style="rounded=0;whiteSpace=wrap;html=1;strokeWidth=2;fillColor=#BF616A;strokeColor=#BF616A;perimeterSpacing=0;glass=0;shadow=0;fillStyle=solid;gradientColor=none;fillOpacity=50;" vertex="1" parent="1">
          <mxGeometry x="920" y="1320" width="120" height="40" as="geometry" />
        </mxCell>
        <mxCell id="hnxFMZsX1aQDn-uRQMKV-192" style="edgeStyle=orthogonalEdgeStyle;rounded=0;orthogonalLoop=1;jettySize=auto;html=1;entryX=0.5;entryY=0;entryDx=0;entryDy=0;strokeWidth=2;strokeColor=#BF616A;" edge="1" parent="1" source="hnxFMZsX1aQDn-uRQMKV-193">
          <mxGeometry relative="1" as="geometry">
            <mxPoint x="1140" y="1400" as="targetPoint" />
          </mxGeometry>
        </mxCell>
        <mxCell id="hnxFMZsX1aQDn-uRQMKV-193" value="&lt;font color=&quot;#2e3440&quot; face=&quot;Helvetica&quot; style=&quot;font-size: 15px;&quot;&gt;autoheader&lt;/font&gt;" style="rounded=0;whiteSpace=wrap;html=1;strokeWidth=2;fillColor=#BF616A;strokeColor=#BF616A;perimeterSpacing=0;glass=0;shadow=0;fillStyle=solid;gradientColor=none;fillOpacity=50;" vertex="1" parent="1">
          <mxGeometry x="1080" y="1320" width="120" height="40" as="geometry" />
        </mxCell>
        <mxCell id="hnxFMZsX1aQDn-uRQMKV-223" style="edgeStyle=orthogonalEdgeStyle;rounded=0;orthogonalLoop=1;jettySize=auto;html=1;strokeWidth=2;strokeColor=#5E81AC;" edge="1" parent="1" source="hnxFMZsX1aQDn-uRQMKV-195" target="hnxFMZsX1aQDn-uRQMKV-191">
          <mxGeometry relative="1" as="geometry" />
        </mxCell>
        <mxCell id="hnxFMZsX1aQDn-uRQMKV-195" value="&lt;font color=&quot;#2e3440&quot; face=&quot;Helvetica&quot; style=&quot;font-size: 15px;&quot;&gt;aclocal.m4&lt;/font&gt;" style="rounded=0;whiteSpace=wrap;html=1;strokeWidth=2;fillColor=#5E81AC;strokeColor=#5E81AC;fontColor=#333333;fillOpacity=50;" vertex="1" parent="1">
          <mxGeometry x="920" y="1240" width="120" height="40" as="geometry" />
        </mxCell>
        <mxCell id="hnxFMZsX1aQDn-uRQMKV-201" value="" style="endArrow=classic;html=1;rounded=0;entryX=0.75;entryY=0;entryDx=0;entryDy=0;strokeWidth=2;strokeColor=#4C566A;exitX=0.25;exitY=1;exitDx=0;exitDy=0;" edge="1" parent="1" source="hnxFMZsX1aQDn-uRQMKV-184" target="hnxFMZsX1aQDn-uRQMKV-191">
          <mxGeometry width="50" height="50" relative="1" as="geometry">
            <mxPoint x="1140" y="1280" as="sourcePoint" />
            <mxPoint x="980" y="1410" as="targetPoint" />
            <Array as="points">
              <mxPoint x="1110" y="1300" />
              <mxPoint x="1010" y="1300" />
            </Array>
          </mxGeometry>
        </mxCell>
        <mxCell id="hnxFMZsX1aQDn-uRQMKV-225" style="edgeStyle=orthogonalEdgeStyle;rounded=0;orthogonalLoop=1;jettySize=auto;html=1;entryX=0.5;entryY=0;entryDx=0;entryDy=0;strokeWidth=2;strokeColor=#4C566A;" edge="1" parent="1" source="hnxFMZsX1aQDn-uRQMKV-203" target="hnxFMZsX1aQDn-uRQMKV-175">
          <mxGeometry relative="1" as="geometry" />
        </mxCell>
        <mxCell id="hnxFMZsX1aQDn-uRQMKV-203" value="&lt;font color=&quot;#2e3440&quot; face=&quot;Helvetica&quot; style=&quot;font-size: 15px;&quot;&gt;config.h.in&lt;/font&gt;" style="rounded=0;whiteSpace=wrap;html=1;strokeWidth=2;fillColor=#ECEFF4;strokeColor=#4c566a;fontColor=#333333;fillOpacity=50;" vertex="1" parent="1">
          <mxGeometry x="1080" y="1400" width="120" height="40" as="geometry" />
        </mxCell>
        <mxCell id="hnxFMZsX1aQDn-uRQMKV-207" value="&lt;font color=&quot;#2e3440&quot; face=&quot;Helvetica&quot; style=&quot;font-size: 15px;&quot;&gt;config.h&lt;/font&gt;" style="rounded=0;whiteSpace=wrap;html=1;strokeWidth=2;fillColor=#A3BE8C;strokeColor=#A3BE8C;fontColor=#333333;fillOpacity=50;" vertex="1" parent="1">
          <mxGeometry x="1080" y="1560" width="120" height="40" as="geometry" />
        </mxCell>
      </root>
    </mxGraphModel>
  </diagram>
</mxfile>
